<?xml version="1.0" standalone="no"?>
<!DOCTYPE svg PUBLIC "-//W3C//DTD SVG 20010904//EN"
 "http://www.w3.org/TR/2001/REC-SVG-20010904/DTD/svg10.dtd">
<svg version="1.0" xmlns="http://www.w3.org/2000/svg"
 width="700.000000pt" height="700.000000pt" viewBox="0 0 700.000000 700.000000"
 preserveAspectRatio="xMidYMid meet">
<metadata>
Created by potrace 1.11, written by Peter Selinger 2001-2013
</metadata>
<g transform="translate(0.000000,700.000000) scale(0.100000,-0.100000)"
fill="#000000" stroke="none">
<path d="M3299 6786 c-2 -2 -44 -6 -94 -10 -49 -3 -101 -8 -115 -11 -14 -3
-50 -8 -80 -11 -30 -3 -57 -7 -60 -9 -3 -2 -24 -6 -46 -9 -133 -20 -359 -82
-538 -147 -141 -52 -125 -45 -296 -127 -396 -191 -766 -473 -1050 -800 -30
-35 -60 -69 -65 -75 -24 -27 -135 -178 -187 -252 -156 -226 -298 -514 -392
-795 -88 -264 -129 -467 -162 -805 -17 -177 -6 -545 21 -694 2 -9 7 -41 11
-71 4 -30 9 -57 9 -60 2 -6 17 -80 20 -100 25 -133 128 -459 191 -600 122
-274 277 -537 431 -730 24 -30 59 -73 76 -95 86 -106 317 -336 416 -413 19
-15 48 -38 65 -52 346 -284 858 -529 1316 -629 277 -60 428 -76 730 -76 260 1
379 11 650 60 201 36 503 136 723 239 55 25 101 46 103 46 9 0 275 157 343
202 75 51 221 157 231 168 3 3 34 30 70 60 93 76 260 238 330 320 12 14 33 38
47 54 56 63 171 216 227 301 32 50 67 101 76 115 86 128 231 437 305 650 31
91 86 283 101 353 15 73 53 313 59 372 3 39 8 90 11 115 5 58 5 399 -1 470 -7
86 -15 172 -20 205 -68 453 -187 807 -395 1180 -39 70 -173 278 -204 316 -11
15 -30 39 -41 55 -160 224 -500 548 -745 709 -25 17 -47 33 -50 36 -3 3 -54
35 -115 71 -345 207 -722 351 -1105 423 -14 3 -36 7 -50 10 -14 3 -41 7 -60 9
-19 3 -55 7 -80 10 -25 4 -67 9 -95 12 -56 7 -510 15 -516 10z m1051 -1443 c0
-4 -26 -8 -58 -9 -109 -1 -188 -26 -283 -87 -69 -45 -124 -109 -172 -200 -21
-39 -35 -61 -31 -47 37 141 217 301 375 334 76 15 169 20 169 9z m128 -29 c98
-39 174 -96 241 -179 29 -37 78 -139 86 -180 3 -16 -5 -2 -18 33 -68 175 -220
308 -390 342 -33 6 -36 8 -14 9 16 1 59 -11 95 -25z m-388 -328 c0 -2 -8 -10
-17 -17 -16 -13 -17 -12 -4 4 13 16 21 21 21 13z m-37 -51 c-3 -9 -8 -14 -10
-11 -3 3 -2 9 2 15 9 16 15 13 8 -4z m-266 -32 c-3 -10 -5 -4 -5 12 0 17 2 24
5 18 2 -7 2 -21 0 -30z m245 -25 c-8 -8 -9 -4 -5 13 4 13 8 18 11 10 2 -7 -1
-18 -6 -23z m790 -20 c2 -20 0 -34 -4 -32 -4 3 -8 24 -7 47 1 47 6 41 11 -15z
m-1035 -23 c-1 -25 -5 -45 -10 -45 -4 0 -5 19 -3 43 5 48 5 47 10 47 2 0 3
-20 3 -45z m240 -12 c-3 -10 -5 -4 -5 12 0 17 2 24 5 18 2 -7 2 -21 0 -30z
m790 -60 c-3 -10 -5 -2 -5 17 0 19 2 27 5 18 2 -10 2 -26 0 -35z m-270 -35
c-3 -8 -6 -5 -6 6 -1 11 2 17 5 13 3 -3 4 -12 1 -19z m266 -8 c-3 -12 -8 -19
-11 -16 -5 6 5 36 12 36 2 0 2 -9 -1 -20z m-1023 -24 c0 -2 -17 -16 -37 -31
l-38 -26 35 30 c34 31 40 35 40 27z m1010 -32 c-31 -80 -72 -146 -125 -201
-60 -61 -138 -115 -185 -127 -14 -4 -2 5 25 19 115 61 191 138 247 251 41 84
56 107 38 58z m-690 -39 c19 -19 32 -35 29 -35 -3 0 -20 16 -39 35 -19 19 -32
35 -29 35 3 0 20 -16 39 -35z m-425 -11 c-29 -24 -77 -54 -64 -40 11 12 84 65
89 65 3 0 -8 -11 -25 -25z m490 -42 c-3 -3 -11 0 -18 7 -9 10 -8 11 6 5 10 -3
15 -9 12 -12z m-565 -7 c0 -4 -113 -89 -180 -135 -64 -43 -20 -6 78 67 103 76
102 75 102 68z m270 -119 c0 -2 -8 -10 -17 -17 -16 -13 -17 -12 -4 4 13 16 21
21 21 13z m126 -47 c24 -16 63 -39 87 -49 23 -11 36 -20 29 -20 -17 0 -100 43
-141 74 -48 36 -29 33 25 -5z m-166 17 c0 -2 -8 -10 -17 -17 -16 -13 -17 -12
-4 4 13 16 21 21 21 13z m-450 -10 c0 -5 -89 -72 -180 -135 -92 -63 -48 -26
80 68 97 72 100 74 100 67z m380 -40 c0 -3 -15 -14 -32 -26 l-33 -22 30 26
c31 27 35 29 35 22z m638 -58 c-31 -8 -198 -8 -220 0 -9 4 41 7 113 7 72 0
120 -3 107 -7z m-823 -78 c-3 -5 -27 -24 -53 -41 -54 -37 -46 -25 13 20 45 33
49 35 40 21z m-455 -14 c0 -2 -21 -20 -47 -38 -27 -19 -100 -72 -163 -118 -63
-45 -108 -76 -100 -67 13 14 301 226 308 227 1 0 2 -2 2 -4z m340 -72 c-8 -8
-23 -20 -34 -25 -13 -7 -9 -1 9 15 34 29 43 33 25 10z m-60 -43 c0 -5 -7 -12
-16 -15 -14 -5 -15 -4 -4 9 14 17 20 19 20 6z m-40 -25 c0 -2 -17 -16 -37 -31
l-38 -26 35 30 c34 31 40 35 40 27z m-80 -60 c0 -2 -17 -16 -37 -31 l-38 -27
33 31 c30 29 42 37 42 27z m-1060 -46 c0 -5 -2 -10 -4 -10 -3 0 -8 5 -11 10
-3 6 -1 10 4 10 6 0 11 -4 11 -10z m155 -18 c56 -17 120 -52 160 -88 l40 -36
-43 32 c-59 44 -126 75 -197 90 -33 7 -64 16 -68 20 -9 8 59 -4 108 -18z m415
24 c0 -3 -15 -14 -32 -26 l-33 -22 30 26 c31 27 35 29 35 22z m-627 -13 c-7
-2 -21 -2 -30 0 -10 3 -4 5 12 5 17 0 24 -2 18 -5z m-108 -22 c-90 -32 -135
-61 -202 -128 -46 -46 -76 -88 -100 -140 -34 -71 -52 -97 -33 -49 56 147 177
269 319 321 20 8 43 14 51 14 8 0 -8 -8 -35 -18z m1145 16 c0 -2 -15 -13 -32
-26 l-33 -22 28 25 c26 24 37 31 37 23z m-480 -31 c0 -3 -31 -27 -70 -55 -38
-28 -70 -49 -70 -46 0 4 131 104 138 105 1 0 2 -2 2 -4z m405 -24 c-29 -25
-135 -102 -135 -98 0 6 130 106 138 106 4 0 2 -4 -3 -8z m-145 -106 c0 -3 -15
-14 -32 -26 l-33 -22 30 26 c31 27 35 29 35 22z m-70 -50 c0 -3 -15 -14 -32
-26 l-33 -22 30 26 c31 27 35 29 35 22z m-70 -50 c0 -3 -15 -14 -32 -26 l-33
-22 30 26 c31 27 35 29 35 22z m-770 -20 c0 -2 -8 -10 -17 -17 -16 -13 -17
-12 -4 4 13 16 21 21 21 13z m685 -46 c-10 -11 -22 -20 -28 -20 -5 0 1 9 14
20 31 25 37 25 14 0z m-1048 -97 c-3 -10 -5 -4 -5 12 0 17 2 24 5 18 2 -7 2
-21 0 -30z m1030 -125 c-2 -24 -4 -5 -4 42 0 47 2 66 4 43 2 -24 2 -62 0 -85z
m-1032 45 c-1 -32 2 -73 6 -90 4 -18 3 -33 -1 -33 -10 0 -16 33 -19 113 -1 37
2 67 7 67 5 0 8 -26 7 -57z m1022 -135 c-3 -8 -6 -5 -6 6 -1 11 2 17 5 13 3
-3 4 -12 1 -19z m-1003 -14 c3 -8 2 -12 -4 -9 -6 3 -10 10 -10 16 0 14 7 11
14 -7z m716 -8 c0 -2 -8 -10 -17 -17 -16 -13 -17 -12 -4 4 13 16 21 21 21 13z
m-355 -80 c6 -5 1 -4 -10 2 -11 6 -33 25 -50 44 l-30 33 40 -35 c22 -19 45
-39 50 -44z m666 57 c13 -16 12 -17 -3 -4 -10 7 -18 15 -18 17 0 8 8 3 21 -13z
m79 -59 c0 -3 -13 4 -30 16 -16 12 -30 24 -30 26 0 3 14 -4 30 -16 17 -12 30
-24 30 -26z m-1071 -4 c11 -24 11 -24 -3 -6 -9 11 -16 24 -16 30 0 12 5 7 19
-24z m366 -10 c3 -6 -1 -7 -9 -4 -18 7 -21 14 -7 14 6 0 13 -4 16 -10z m785
-47 c0 -7 -58 36 -66 49 -4 7 9 -1 29 -16 20 -16 37 -30 37 -33z m-983 -125
c56 -43 178 -88 239 -88 18 0 35 -4 38 -8 8 -14 -108 6 -168 28 -77 29 -167
92 -214 148 -64 78 -60 80 13 7 39 -39 80 -78 92 -87z m1053 76 c0 -3 -13 4
-30 16 -16 12 -30 24 -30 26 0 3 14 -4 30 -16 17 -12 30 -24 30 -26z m31 -21
c13 -16 12 -17 -3 -4 -17 13 -22 21 -14 21 2 0 10 -8 17 -17z m-475 -48 c-31
-24 -109 -65 -161 -83 -63 -22 -70 -23 -60 -14 6 5 30 15 55 22 43 14 155 72
175 91 5 5 11 9 15 9 3 -1 -8 -11 -24 -25z m594 -42 c0 -7 -58 36 -66 49 -4 7
9 -1 29 -16 20 -16 37 -30 37 -33z m-429 0 c13 -16 12 -17 -3 -4 -17 13 -22
21 -14 21 2 0 10 -8 17 -17z m179 -131 c21 -21 -121 77 -145 101 -11 10 14 -4
55 -33 41 -29 82 -59 90 -68z m345 68 c10 -11 16 -20 13 -20 -3 0 -13 9 -23
20 -10 11 -16 20 -13 20 3 0 13 -9 23 -20z m-932 3 c-7 -2 -21 -2 -30 0 -10 3
-4 5 12 5 17 0 24 -2 18 -5z m1008 -59 c9 -11 2 -9 -18 6 -18 13 -33 25 -33
27 0 8 38 -17 51 -33z m70 -50 c9 -11 2 -9 -18 6 -18 13 -33 25 -33 27 0 8 38
-17 51 -33z m-321 -85 c42 -37 20 -23 -78 49 -39 30 -72 56 -72 58 0 7 108
-71 150 -107z m400 25 c0 -3 -13 4 -30 16 -16 12 -30 24 -30 26 0 3 14 -4 30
-16 17 -12 30 -24 30 -26z m31 -21 c13 -16 12 -17 -3 -4 -17 13 -22 21 -14 21
2 0 10 -8 17 -17z m40 -30 c13 -16 12 -17 -3 -4 -17 13 -22 21 -14 21 2 0 10
-8 17 -17z m-292 -101 c56 -40 101 -75 101 -78 0 -3 -24 11 -52 32 -145 105
-222 164 -171 133 12 -8 67 -47 122 -87z m356 58 c10 -11 16 -20 13 -20 -3 0
-13 9 -23 20 -10 11 -16 20 -13 20 3 0 13 -9 23 -20z m46 -37 c13 -16 12 -17
-3 -4 -17 13 -22 21 -14 21 2 0 10 -8 17 -17z m70 -50 c13 -16 12 -17 -3 -4
-17 13 -22 21 -14 21 2 0 10 -8 17 -17z m40 -30 c13 -16 12 -17 -3 -4 -17 13
-22 21 -14 21 2 0 10 -8 17 -17z m554 10 c-124 -10 -242 -50 -322 -109 -31
-24 -35 -25 -19 -6 26 30 151 91 218 108 29 7 78 12 108 11 41 0 45 -1 15 -4z
m125 -13 c94 -24 180 -76 251 -152 51 -54 116 -173 124 -228 4 -22 -2 -13 -14
26 -48 143 -159 264 -296 321 -48 21 -122 39 -137 35 -5 -1 -8 3 -8 9 0 6 8 8
18 5 9 -3 37 -10 62 -16z m-635 -28 c-3 -3 -11 0 -18 7 -9 10 -8 11 6 5 10 -3
15 -9 12 -12z m-379 -44 c4 -7 -9 1 -29 16 -20 16 -37 30 -37 33 0 7 58 -36
66 -49z m142 -102 c3 -5 -16 6 -42 24 -26 19 -50 39 -54 44 -3 5 16 -6 42 -24
26 -19 50 -39 54 -44z m37 -26 c10 -11 16 -20 13 -20 -3 0 -13 9 -23 20 -10
11 -16 20 -13 20 3 0 13 -9 23 -20z m630 -40 c-3 -5 -12 -10 -18 -10 -7 0 -6
4 3 10 19 12 23 12 15 0z m-55 -24 c0 -2 -7 -7 -16 -10 -8 -3 -12 -2 -9 4 6
10 25 14 25 6z m-60 -39 c0 -2 -10 -12 -22 -23 l-23 -19 19 23 c18 21 26 27
26 19z m-318 -102 c-2 -19 -8 -37 -12 -40 -4 -2 -5 8 -3 23 10 59 21 73 15 17z
m756 -10 c-3 -3 -9 2 -12 12 -6 14 -5 15 5 6 7 -7 10 -15 7 -18z m269 -52 c-3
-10 -5 -2 -5 17 0 19 2 27 5 18 2 -10 2 -26 0 -35z m-260 15 c-3 -8 -6 -5 -6
6 -1 11 2 17 5 13 3 -3 4 -12 1 -19z m-769 -78 c1 -39 7 -82 12 -95 5 -14 6
-25 1 -25 -5 0 -12 12 -16 28 -10 40 -16 162 -7 162 4 0 8 -32 10 -70z m239
18 c-3 -8 -6 -5 -6 6 -1 11 2 17 5 13 3 -3 4 -12 1 -19z m540 -3 c0 -8 -4 -12
-9 -9 -5 3 -6 10 -3 15 9 13 12 11 12 -6z m256 -5 c-3 -11 -7 -20 -9 -20 -2 0
-4 9 -4 20 0 11 4 20 9 20 5 0 7 -9 4 -20z m-796 -32 c-3 -8 -6 -5 -6 6 -1 11
2 17 5 13 3 -3 4 -12 1 -19z m525 -20 c-8 -8 -9 -4 -5 13 4 13 8 18 11 10 2
-7 -1 -18 -6 -23z m258 -35 c-11 -17 -11 -17 -6 0 3 10 7 28 7 40 2 22 2 22 6
0 2 -12 -1 -30 -7 -40z m-740 -33 c6 -11 8 -20 6 -20 -3 0 -10 9 -16 20 -6 11
-8 20 -6 20 3 0 10 -9 16 -20z m731 -17 c-22 -74 -70 -152 -131 -214 -75 -75
-137 -113 -230 -138 -58 -16 -222 -30 -210 -18 3 3 36 7 73 8 199 7 368 112
450 280 20 41 38 82 41 92 3 9 7 17 10 17 3 0 1 -12 -3 -27z m-864 -207 c39
-39 92 -79 129 -98 35 -18 62 -34 60 -36 -11 -10 -126 60 -182 111 -61 56
-144 180 -144 216 0 7 16 -18 35 -57 23 -46 58 -93 102 -136z m174 167 c13
-16 12 -17 -3 -4 -10 7 -18 15 -18 17 0 8 8 3 21 -13z m104 -61 c-3 -3 -11 0
-18 7 -9 10 -8 11 6 5 10 -3 15 -9 12 -12z m52 -8 c-3 -3 -12 -4 -19 -1 -8 3
-5 6 6 6 11 1 17 -2 13 -5z m-97 -244 c8 -5 11 -10 5 -10 -5 0 -17 5 -25 10
-8 5 -10 10 -5 10 6 0 17 -5 25 -10z m45 -10 c3 -6 -1 -7 -9 -4 -18 7 -21 14
-7 14 6 0 13 -4 16 -10z"/>
</g>
</svg>
